<?xml version="1.0" encoding="UTF-8" standalone="no"?>
<svg xmlns="http://www.w3.org/2000/svg" xml:space="preserve" viewBox="0 0 45 45">
  <defs>
    <clipPath id="a" clipPathUnits="userSpaceOnUse">
      <path d="M0 36h36V0H0v36Z"/>
    </clipPath>
  </defs>
  <g clip-path="url(#a)" transform="matrix(1.25 0 0 -1.25 0 45)">
    <path fill="#939598" d="M36 11c0-5.523-8.059-10-18-10S0 5.477 0 11s8.059 10 18 10 18-4.477 18-10"/>
    <path fill="#f1f2f2" d="M36 13c0-5.523-8.059-10-18-10S0 7.477 0 13s8.059 10 18 10 18-4.477 18-10"/>
    <path fill="#fff" d="M32.7998 13.3887c0-4.202-6.626-7.611-14.8-7.611s-14.8 3.409-14.8 7.611c0 4.203 6.626 7.611 14.8 7.611s14.8-3.408 14.8-7.611"/>
    <path fill="#e1e8ed" d="M8 8c0 3.044.417 7.208.042 13.875.6 1.376 6.146 2.472 6.625 3.792C15.954 29.213 13.458 31.583 16 34c2.05 1.949 5 2 6-1 2 2 6 1 6-2 4 1 6-3 3-6 0-1-1-9-1-11s-.208-1.792-5.208-2.792C19.792 10.208 8 8 8 8"/>
    <path fill="#ffac33" d="M8 9v12s21 7 21 2.458V13L8 9Z"/>
    <path fill="#ffd983" d="M8 10v10s12.375 4.208 20 4V14L8 10Z"/>
    <path fill="#ffac33" d="M8 15v1l21 4v-1L8 15Z"/>
    <path fill="#e1e8ed" d="m8 22 9 9c2 0 8-1 11-5-9.872-1.975-9.872-1.975-20-4"/>
    <path fill="#fff" d="M30 26c1 1 1 5-3 4 0 1-2 4-5 2 0 1-5 2-6 0 10-3 14-6 14-6"/>
    <path fill="#dd2e44" d="M17.9585 25.5415c-1.833.208-4.417 1.083-3.917 3.5s2.474 4.881 3.75 5.542c1.126.583 2.326.157 3.209-3.25.583-2.25 2.75-5.125-1.667-5.75-.458 0-1.375-.042-1.375-.042"/>
    <path fill="#f4abba" d="M18.3755 30.9585c-.152 0-.302.069-.4.2l-.5.667c-.166.22-.121.534.099.699.221.167.534.122.7-.1l.5-.666c.166-.221.121-.534-.099-.7-.09-.067-.196-.1-.3-.1m-2.4165-3.5c-.042 0-.085.005-.127.016-.267.07-.427.343-.357.61l.25.958c.069.268.344.427.61.358.267-.07.427-.343.357-.61l-.25-.958c-.058-.225-.261-.374-.483-.374m4.374-.0835c-.089 0-.18.023-.261.073l-.75.458c-.235.144-.309.452-.166.688.146.236.453.309.688.166l.75-.458c.235-.144.309-.452.166-.688-.095-.154-.259-.239-.427-.239"/>
  </g>
</svg>