<svg width="4183" height="2285" xmlns="http://www.w3.org/2000/svg" xmlns:xlink="http://www.w3.org/1999/xlink" xml:space="preserve" overflow="hidden"><defs><filter id="fx0" x="-10%" y="-10%" width="120%" height="120%" filterUnits="userSpaceOnUse" primitiveUnits="userSpaceOnUse"><feComponentTransfer color-interpolation-filters="sRGB"><feFuncR type="discrete" tableValues="0 0"/><feFuncG type="discrete" tableValues="0 0"/><feFuncB type="discrete" tableValues="0 0"/><feFuncA type="linear" slope="0.4" intercept="0"/></feComponentTransfer><feGaussianBlur stdDeviation="6.11111 6.11111"/></filter><filter id="fx1" x="-10%" y="-10%" width="120%" height="120%" filterUnits="userSpaceOnUse" primitiveUnits="userSpaceOnUse"><feComponentTransfer color-interpolation-filters="sRGB"><feFuncR type="discrete" tableValues="0 0"/><feFuncG type="discrete" tableValues="0 0"/><feFuncB type="discrete" tableValues="0 0"/><feFuncA type="linear" slope="0.4" intercept="0"/></feComponentTransfer><feGaussianBlur stdDeviation="6.11111 6.11111"/></filter><filter id="fx2" x="-10%" y="-10%" width="120%" height="120%" filterUnits="userSpaceOnUse" primitiveUnits="userSpaceOnUse"><feComponentTransfer color-interpolation-filters="sRGB"><feFuncR type="discrete" tableValues="0 0"/><feFuncG type="discrete" tableValues="0 0"/><feFuncB type="discrete" tableValues="0 0"/><feFuncA type="linear" slope="0.4" intercept="0"/></feComponentTransfer><feGaussianBlur stdDeviation="6.11111 6.11111"/></filter><filter id="fx3" x="-10%" y="-10%" width="120%" height="120%" filterUnits="userSpaceOnUse" primitiveUnits="userSpaceOnUse"><feComponentTransfer color-interpolation-filters="sRGB"><feFuncR type="discrete" tableValues="0 0"/><feFuncG type="discrete" tableValues="0 0"/><feFuncB type="discrete" tableValues="0 0"/><feFuncA type="linear" slope="0.4" intercept="0"/></feComponentTransfer><feGaussianBlur stdDeviation="6.11111 6.11111"/></filter><filter id="fx4" x="-10%" y="-10%" width="120%" height="120%" filterUnits="userSpaceOnUse" primitiveUnits="userSpaceOnUse"><feComponentTransfer color-interpolation-filters="sRGB"><feFuncR type="discrete" tableValues="0 0"/><feFuncG type="discrete" tableValues="0 0"/><feFuncB type="discrete" tableValues="0 0"/><feFuncA type="linear" slope="0.4" intercept="0"/></feComponentTransfer><feGaussianBlur stdDeviation="6.11111 6.11111"/></filter><filter id="fx5" x="-10%" y="-10%" width="120%" height="120%" filterUnits="userSpaceOnUse" primitiveUnits="userSpaceOnUse"><feComponentTransfer color-interpolation-filters="sRGB"><feFuncR type="discrete" tableValues="0 0"/><feFuncG type="discrete" tableValues="0 0"/><feFuncB type="discrete" tableValues="0 0"/><feFuncA type="linear" slope="0.4" intercept="0"/></feComponentTransfer><feGaussianBlur stdDeviation="6.11111 6.11111"/></filter><filter id="fx6" x="-10%" y="-10%" width="120%" height="120%" filterUnits="userSpaceOnUse" primitiveUnits="userSpaceOnUse"><feComponentTransfer color-interpolation-filters="sRGB"><feFuncR type="discrete" tableValues="0 0"/><feFuncG type="discrete" tableValues="0 0"/><feFuncB type="discrete" tableValues="0 0"/><feFuncA type="linear" slope="0.4" intercept="0"/></feComponentTransfer><feGaussianBlur stdDeviation="6.11111 6.11111"/></filter><filter id="fx7" x="-10%" y="-10%" width="120%" height="120%" filterUnits="userSpaceOnUse" primitiveUnits="userSpaceOnUse"><feComponentTransfer color-interpolation-filters="sRGB"><feFuncR type="discrete" tableValues="0 0"/><feFuncG type="discrete" tableValues="0 0"/><feFuncB type="discrete" tableValues="0 0"/><feFuncA type="linear" slope="0.4" intercept="0"/></feComponentTransfer><feGaussianBlur stdDeviation="6.11111 6.11111"/></filter><filter id="fx8" x="-10%" y="-10%" width="120%" height="120%" filterUnits="userSpaceOnUse" primitiveUnits="userSpaceOnUse"><feComponentTransfer color-interpolation-filters="sRGB"><feFuncR type="discrete" tableValues="0 0"/><feFuncG type="discrete" tableValues="0 0"/><feFuncB type="discrete" tableValues="0 0"/><feFuncA type="linear" slope="0.4" intercept="0"/></feComponentTransfer><feGaussianBlur stdDeviation="6.11111 6.11111"/></filter><filter id="fx9" x="-10%" y="-10%" width="120%" height="120%" filterUnits="userSpaceOnUse" primitiveUnits="userSpaceOnUse"><feComponentTransfer color-interpolation-filters="sRGB"><feFuncR type="discrete" tableValues="0 0"/><feFuncG type="discrete" tableValues="0 0"/><feFuncB type="discrete" tableValues="0 0"/><feFuncA type="linear" slope="0.4" intercept="0"/></feComponentTransfer><feGaussianBlur stdDeviation="6.11111 6.11111"/></filter><filter id="fx10" x="-10%" y="-10%" width="120%" height="120%" filterUnits="userSpaceOnUse" primitiveUnits="userSpaceOnUse"><feComponentTransfer color-interpolation-filters="sRGB"><feFuncR type="discrete" tableValues="0 0"/><feFuncG type="discrete" tableValues="0 0"/><feFuncB type="discrete" tableValues="0 0"/><feFuncA type="linear" slope="0.4" intercept="0"/></feComponentTransfer><feGaussianBlur stdDeviation="6.11111 6.11111"/></filter><filter id="fx11" x="-10%" y="-10%" width="120%" height="120%" filterUnits="userSpaceOnUse" primitiveUnits="userSpaceOnUse"><feComponentTransfer color-interpolation-filters="sRGB"><feFuncR type="discrete" tableValues="0 0"/><feFuncG type="discrete" tableValues="0 0"/><feFuncB type="discrete" tableValues="0 0"/><feFuncA type="linear" slope="0.4" intercept="0"/></feComponentTransfer><feGaussianBlur stdDeviation="6.11111 6.11111"/></filter><filter id="fx12" x="-10%" y="-10%" width="120%" height="120%" filterUnits="userSpaceOnUse" primitiveUnits="userSpaceOnUse"><feComponentTransfer color-interpolation-filters="sRGB"><feFuncR type="discrete" tableValues="0 0"/><feFuncG type="discrete" tableValues="0 0"/><feFuncB type="discrete" tableValues="0 0"/><feFuncA type="linear" slope="0.4" intercept="0"/></feComponentTransfer><feGaussianBlur stdDeviation="6.11111 6.11111"/></filter><filter id="fx13" x="-10%" y="-10%" width="120%" height="120%" filterUnits="userSpaceOnUse" primitiveUnits="userSpaceOnUse"><feComponentTransfer color-interpolation-filters="sRGB"><feFuncR type="discrete" tableValues="0 0"/><feFuncG type="discrete" tableValues="0 0"/><feFuncB type="discrete" tableValues="0 0"/><feFuncA type="linear" slope="0.4" intercept="0"/></feComponentTransfer><feGaussianBlur stdDeviation="6.11111 6.11111"/></filter><filter id="fx14" x="-10%" y="-10%" width="120%" height="120%" filterUnits="userSpaceOnUse" primitiveUnits="userSpaceOnUse"><feComponentTransfer color-interpolation-filters="sRGB"><feFuncR type="discrete" tableValues="0 0"/><feFuncG type="discrete" tableValues="0 0"/><feFuncB type="discrete" tableValues="0 0"/><feFuncA type="linear" slope="0.4" intercept="0"/></feComponentTransfer><feGaussianBlur stdDeviation="6.11111 6.11111"/></filter><filter id="fx15" x="-10%" y="-10%" width="120%" height="120%" filterUnits="userSpaceOnUse" primitiveUnits="userSpaceOnUse"><feComponentTransfer color-interpolation-filters="sRGB"><feFuncR type="discrete" tableValues="0 0"/><feFuncG type="discrete" tableValues="0 0"/><feFuncB type="discrete" tableValues="0 0"/><feFuncA type="linear" slope="0.4" intercept="0"/></feComponentTransfer><feGaussianBlur stdDeviation="6.11111 6.11111"/></filter><filter id="fx16" x="-10%" y="-10%" width="120%" height="120%" filterUnits="userSpaceOnUse" primitiveUnits="userSpaceOnUse"><feComponentTransfer color-interpolation-filters="sRGB"><feFuncR type="discrete" tableValues="0 0"/><feFuncG type="discrete" tableValues="0 0"/><feFuncB type="discrete" tableValues="0 0"/><feFuncA type="linear" slope="0.4" intercept="0"/></feComponentTransfer><feGaussianBlur stdDeviation="6.11111 6.11111"/></filter><filter id="fx17" x="-10%" y="-10%" width="120%" height="120%" filterUnits="userSpaceOnUse" primitiveUnits="userSpaceOnUse"><feComponentTransfer color-interpolation-filters="sRGB"><feFuncR type="discrete" tableValues="0 0"/><feFuncG type="discrete" tableValues="0 0"/><feFuncB type="discrete" tableValues="0 0"/><feFuncA type="linear" slope="0.4" intercept="0"/></feComponentTransfer><feGaussianBlur stdDeviation="6.11111 6.11111"/></filter><filter id="fx18" x="-10%" y="-10%" width="120%" height="120%" filterUnits="userSpaceOnUse" primitiveUnits="userSpaceOnUse"><feComponentTransfer color-interpolation-filters="sRGB"><feFuncR type="discrete" tableValues="0 0"/><feFuncG type="discrete" tableValues="0 0"/><feFuncB type="discrete" tableValues="0 0"/><feFuncA type="linear" slope="0.4" intercept="0"/></feComponentTransfer><feGaussianBlur stdDeviation="6.11111 6.11111"/></filter><clipPath id="clip19"><rect x="139" y="89" width="4183" height="2285"/></clipPath><clipPath id="clip20"><path d="M220.5 288.5 220.5 461.5 770.5 461.5 770.5 288.5ZM139 89 4322 89 4322 2374 139 2374Z" fill-rule="evenodd" clip-rule="evenodd"/></clipPath><clipPath id="clip21"><path d="M868.5 288.5 868.5 461.5 1418.5 461.5 1418.5 288.5ZM139 89 4322 89 4322 2374 139 2374Z" fill-rule="evenodd" clip-rule="evenodd"/></clipPath><clipPath id="clip22"><path d="M1524.5 288.5 1524.5 461.5 2074.5 461.5 2074.5 288.5ZM139 89 4322 89 4322 2374 139 2374Z" fill-rule="evenodd" clip-rule="evenodd"/></clipPath><clipPath id="clip23"><path d="M2362.5 129.5 2362.5 302.5 2912.5 302.5 2912.5 129.5ZM139 89 4322 89 4322 2374 139 2374Z" fill-rule="evenodd" clip-rule="evenodd"/></clipPath><clipPath id="clip24"><path d="M3440.5 127.5 3440.5 300.5 3990.5 300.5 3990.5 127.5ZM139 89 4322 89 4322 2374 139 2374Z" fill-rule="evenodd" clip-rule="evenodd"/></clipPath><clipPath id="clip25"><path d="M3440.5 479.5 3440.5 652.5 3990.5 652.5 3990.5 479.5ZM139 89 4322 89 4322 2374 139 2374Z" fill-rule="evenodd" clip-rule="evenodd"/></clipPath><clipPath id="clip26"><path d="M2613.5 685.5 2613.5 859.5 3163.5 859.5 3163.5 685.5ZM139 89 4322 89 4322 2374 139 2374Z" fill-rule="evenodd" clip-rule="evenodd"/></clipPath><clipPath id="clip27"><path d="M3439.5 1024.5 3439.5 1197.5 3989.5 1197.5 3989.5 1024.5ZM139 89 4322 89 4322 2374 139 2374Z" fill-rule="evenodd" clip-rule="evenodd"/></clipPath><clipPath id="clip28"><path d="M2613.5 1026.5 2613.5 1199.5 3163.5 1199.5 3163.5 1026.5ZM139 89 4322 89 4322 2374 139 2374Z" fill-rule="evenodd" clip-rule="evenodd"/></clipPath><clipPath id="clip29"><path d="M1064.5 1831.5 1064.5 2004.5 1614.5 2004.5 1614.5 1831.5ZM139 89 4322 89 4322 2374 139 2374Z" fill-rule="evenodd" clip-rule="evenodd"/></clipPath><clipPath id="clip30"><path d="M1712.5 1831.5 1712.5 2004.5 2262.5 2004.5 2262.5 1831.5ZM139 89 4322 89 4322 2374 139 2374Z" fill-rule="evenodd" clip-rule="evenodd"/></clipPath><clipPath id="clip31"><path d="M218.5 662.5 218.5 836.5 768.5 836.5 768.5 662.5ZM139 89 4322 89 4322 2374 139 2374Z" fill-rule="evenodd" clip-rule="evenodd"/></clipPath><clipPath id="clip32"><path d="M218.5 1720.5 218.5 1893.5 768.5 1893.5 768.5 1720.5ZM139 89 4322 89 4322 2374 139 2374Z" fill-rule="evenodd" clip-rule="evenodd"/></clipPath><clipPath id="clip33"><path d="M1326.5 981.5 1326.5 1155.5 1876.5 1155.5 1876.5 981.5ZM139 89 4322 89 4322 2374 139 2374Z" fill-rule="evenodd" clip-rule="evenodd"/></clipPath><clipPath id="clip34"><path d="M1524.5 666.5 1524.5 840.5 2074.5 840.5 2074.5 666.5ZM139 89 4322 89 4322 2374 139 2374Z" fill-rule="evenodd" clip-rule="evenodd"/></clipPath><clipPath id="clip35"><path d="M218.5 1311.5 218.5 1485.5 768.5 1485.5 768.5 1311.5ZM139 89 4322 89 4322 2374 139 2374Z" fill-rule="evenodd" clip-rule="evenodd"/></clipPath><clipPath id="clip36"><path d="M2604.5 1463.5 2604.5 1636.5 3154.5 1636.5 3154.5 1463.5ZM139 89 4322 89 4322 2374 139 2374Z" fill-rule="evenodd" clip-rule="evenodd"/></clipPath><clipPath id="clip37"><path d="M2597.5 2069.5 2597.5 2242.5 3147.5 2242.5 3147.5 2069.5ZM139 89 4322 89 4322 2374 139 2374Z" fill-rule="evenodd" clip-rule="evenodd"/></clipPath><clipPath id="clip38"><path d="M3439.5 2068.5 3439.5 2241.5 3989.5 2241.5 3989.5 2068.5ZM139 89 4322 89 4322 2374 139 2374Z" fill-rule="evenodd" clip-rule="evenodd"/></clipPath></defs><g clip-path="url(#clip19)" transform="translate(-139 -89)"><g clip-path="url(#clip20)"><g filter="url(#fx0)" transform="translate(198 280)"><g><rect x="22.4998" y="22.2499" width="550" height="173" stroke="#000000" stroke-width="5" stroke-miterlimit="8" fill="#FFFFFF"/></g></g></g><rect x="220.5" y="288.5" width="550" height="173" stroke="#000000" stroke-width="4.58333" stroke-miterlimit="8" fill="#FFFFFF"/><text font-family="FangSong,FangSong_MSFontService,sans-serif" font-weight="400" font-size="83" transform="matrix(1 0 0 1 370.794 402)">教科书</text><g clip-path="url(#clip21)"><g filter="url(#fx1)" transform="translate(846 280)"><g><rect x="22.5002" y="22.2499" width="550" height="173" stroke="#000000" stroke-width="5" stroke-miterlimit="8" fill="#FFFFFF"/></g></g></g><rect x="868.5" y="288.5" width="550" height="173" stroke="#000000" stroke-width="4.58333" stroke-miterlimit="8" fill="#FFFFFF"/><text font-family="FangSong,FangSong_MSFontService,sans-serif" font-weight="400" font-size="83" transform="matrix(1 0 0 1 979.845 403)">重要专著</text><g clip-path="url(#clip22)"><g filter="url(#fx2)" transform="translate(1502 280)"><g><rect x="22.5" y="22.2499" width="550" height="173" stroke="#000000" stroke-width="5" stroke-miterlimit="8" fill="#FFFFFF"/></g></g></g><rect x="1524.5" y="288.5" width="550" height="173" stroke="#000000" stroke-width="4.58333" stroke-miterlimit="8" fill="#FFFFFF"/><text font-family="FangSong,FangSong_MSFontService,sans-serif" font-weight="400" font-size="83" transform="matrix(1 0 0 1 1634.01 408)">论文主题</text><path d="M495.854 289.583 495.854 205.937 1146.16 205.937 1146.16 262.083 1143.86 262.083 1143.86 207.083 1145.01 208.229 497 208.229 498.146 207.083 498.146 289.583ZM1158.76 257.5 1145.01 285 1131.26 257.5Z"/><text font-family="STKaiti,STKaiti_MSFontService,sans-serif" font-weight="400" font-size="73" transform="matrix(1 0 0 1 673.027 179)">辅助选择</text><path d="M1034 154.854 1799.78 154.854 1799.78 264.688 1797.49 264.688 1797.49 156 1798.63 157.146 1034 157.146ZM1812.38 260.105 1798.63 287.605 1784.88 260.105Z"/><g clip-path="url(#clip23)"><g filter="url(#fx3)" transform="translate(2340 121)"><g><rect x="22.5" y="22.2501" width="550" height="173" stroke="#000000" stroke-width="5" stroke-miterlimit="8" fill="#FFFFFF"/></g></g></g><rect x="2362.5" y="129.5" width="550" height="173" stroke="#000000" stroke-width="4.58333" stroke-miterlimit="8" fill="#FFFFFF"/><text font-family="FangSong,FangSong_MSFontService,sans-serif" font-weight="400" font-size="83" transform="matrix(1 0 0 1 2471.64 249)">三篇文献</text><text font-family="STKaiti,STKaiti_MSFontService,sans-serif" font-weight="400" font-size="73" transform="matrix(1 0 0 1 2231.31 459)">检索归类</text><path d="M0-1.14583 563.78-1.14583 563.78 49.4105 561.488 49.4105 561.488 0 562.634 1.14583 0 1.14583ZM576.384 44.8272 562.634 72.3272 548.884 44.8272Z" transform="matrix(1 0 0 -1 2074 374.327)"/><g clip-path="url(#clip24)"><g filter="url(#fx4)" transform="translate(3418 119)"><g><rect x="22.5" y="22.25" width="550" height="173" stroke="#000000" stroke-width="5" stroke-miterlimit="8" fill="#FFFFFF"/></g></g></g><rect x="3440.5" y="127.5" width="550" height="173" stroke="#000000" stroke-width="4.58333" stroke-miterlimit="8" fill="#FFFFFF"/><text font-family="FangSong,FangSong_MSFontService,sans-serif" font-weight="400" font-size="83" transform="matrix(1 0 0 1 3549.99 247)">文献笔记</text><path d="M0.00675749-1.14581 505.436 1.83498 505.423 4.12661-0.00675749 1.14581ZM500.927-10.796 528.345 3.11594 500.765 16.7035Z" transform="matrix(1 0 0 -1 2912 215.116)"/><text font-family="STKaiti,STKaiti_MSFontService,sans-serif" font-weight="400" font-size="73" transform="matrix(1 0 0 1 2992.48 297)">文献笔记法</text><g clip-path="url(#clip25)"><g filter="url(#fx5)" transform="translate(3418 471)"><g><rect x="22.5" y="22.25" width="550" height="173" stroke="#000000" stroke-width="5" stroke-miterlimit="8" fill="#FFFFFF"/></g></g></g><rect x="3440.5" y="479.5" width="550" height="173" stroke="#000000" stroke-width="4.58333" stroke-miterlimit="8" fill="#FFFFFF"/><text font-family="FangSong,FangSong_MSFontService,sans-serif" font-weight="400" font-size="83" transform="matrix(1 0 0 1 3549.99 599)">反馈论文</text><path d="M3716.15 300 3716.15 455.533 3713.85 455.533 3713.85 300ZM3728.75 450.95 3715 478.45 3701.25 450.95Z"/><text font-family="STKaiti,STKaiti_MSFontService,sans-serif" font-weight="400" font-size="73" transform="matrix(1 0 0 1 3454.67 423)">线性化</text><g clip-path="url(#clip26)"><g filter="url(#fx6)" transform="translate(2591 677)"><g><rect x="22.5" y="22.2499" width="550" height="174" stroke="#000000" stroke-width="5" stroke-miterlimit="8" fill="#FFFFFF"/></g></g></g><rect x="2613.5" y="685.5" width="550" height="174" stroke="#000000" stroke-width="4.58333" stroke-miterlimit="8" fill="#FFFFFF"/><text font-family="FangSong,FangSong_MSFontService,sans-serif" font-weight="400" font-size="83" transform="matrix(1 0 0 1 2681.74 805)">Zotero</text><text font-family="FangSong,FangSong_MSFontService,sans-serif" font-weight="400" font-size="83" transform="matrix(1 0 0 1 2929.24 805)">模板</text><path d="M3176.97 334 3176.97 510.657 2888 510.657 2889.15 509.511 2889.15 662.105 2886.85 662.105 2886.85 508.365 3175.83 508.365 3174.68 509.511 3174.68 334ZM2901.75 657.522 2888 685.022 2874.25 657.522Z"/><path d="M0-1.14583 124.646-1.14583 124.646 372.834 123.5 371.688 224.083 371.688 224.083 373.979 122.354 373.979 122.354 0 123.5 1.14583 0 1.14583ZM219.499 359.084 246.999 372.834 219.499 386.584Z" transform="matrix(1 0 0 -1 3163 771.834)"/><g clip-path="url(#clip27)"><g filter="url(#fx7)" transform="translate(3417 1016)"><g><rect x="22.5" y="22.2499" width="550" height="173" stroke="#000000" stroke-width="5" stroke-miterlimit="8" fill="#FFFFFF"/></g></g></g><rect x="3439.5" y="1024.5" width="550" height="173" stroke="#000000" stroke-width="4.58333" stroke-miterlimit="8" fill="#FFFFFF"/><text font-family="FangSong,FangSong_MSFontService,sans-serif" font-weight="400" font-size="83" transform="matrix(1 0 0 1 3507.71 1144)">NotebookLM</text><path d="M1.14583-0.00315422 2.10732 349.276-0.184339 349.282-1.14583 0.00315422ZM14.6988 344.658 1.02457 372.196-12.8011 344.733Z" transform="matrix(-1 0 0 1 3715.02 652)"/><text font-family="STKaiti,STKaiti_MSFontService,sans-serif" font-weight="400" font-size="73" transform="matrix(1 0 0 1 3520.31 868)">批改</text><path d="M0-1.14583 84.6704-1.14583 84.6704 545.141 23.9412 545.141 23.9412 542.849 83.5246 542.849 82.3787 543.995 82.3787 0 83.5246 1.14583 0 1.14583ZM28.5246 557.745 1.02457 543.995 28.5246 530.245Z" transform="matrix(1 0 0 -1 3989 1109)"/><text font-family="STKaiti,STKaiti_MSFontService,sans-serif" font-weight="400" font-size="73" transform="matrix(1 0 0 1 4094.35 867)">改善</text><g clip-path="url(#clip28)"><g filter="url(#fx8)" transform="translate(2591 1018)"><g><rect x="22.5" y="22.2499" width="550" height="173" stroke="#000000" stroke-width="5" stroke-miterlimit="8" fill="#FFFFFF"/></g></g></g><rect x="2613.5" y="1026.5" width="550" height="173" stroke="#000000" stroke-width="4.58333" stroke-miterlimit="8" fill="#FFFFFF"/><text font-family="FangSong,FangSong_MSFontService,sans-serif" font-weight="400" font-size="83" transform="matrix(1 0 0 1 2743.61 1146)">ChatGPT</text><g clip-path="url(#clip29)"><g filter="url(#fx9)" transform="translate(1042 1823)"><g><rect x="22.5001" y="22.25" width="550" height="173" stroke="#000000" stroke-width="5" stroke-miterlimit="8" fill="#FFFFFF"/></g></g></g><rect x="1064.5" y="1831.5" width="550" height="173" stroke="#000000" stroke-width="4.58333" stroke-miterlimit="8" fill="#FFFFFF"/><text font-family="FangSong,FangSong_MSFontService,sans-serif" font-weight="400" font-size="83" transform="matrix(1 0 0 1 1132.37 1951)">写下关键词</text><g clip-path="url(#clip30)"><g filter="url(#fx10)" transform="translate(1690 1823)"><g><rect x="22.5001" y="22.25" width="550" height="173" stroke="#000000" stroke-width="5" stroke-miterlimit="8" fill="#FFFFFF"/></g></g></g><rect x="1712.5" y="1831.5" width="550" height="173" stroke="#000000" stroke-width="4.58333" stroke-miterlimit="8" fill="#FFFFFF"/><text font-family="FangSong,FangSong_MSFontService,sans-serif" font-weight="400" font-size="83" transform="matrix(1 0 0 1 1821.63 1951)">关系连线</text><text font-family="STKaiti,STKaiti_MSFontService,sans-serif" font-weight="400" font-size="73" transform="matrix(1 0 0 1 1480.44 1630)">写关系标签</text><path d="M1339.85 1833.58 1339.85 1669.94 1990.16 1669.94 1990.16 1806.08 1987.86 1806.08 1987.86 1671.08 1989.01 1672.23 1341 1672.23 1342.15 1671.08 1342.15 1833.58ZM2002.76 1801.5 1989.01 1829 1975.26 1801.5Z"/><g clip-path="url(#clip31)"><g filter="url(#fx11)" transform="translate(196 654)"><g><rect x="22.5001" y="22.2499" width="550" height="174" stroke="#000000" stroke-width="5" stroke-miterlimit="8" fill="#FFFFFF"/></g></g></g><rect x="218.5" y="662.5" width="550" height="174" stroke="#000000" stroke-width="4.58333" stroke-miterlimit="8" fill="#FFFFFF"/><text font-family="FangSong,FangSong_MSFontService,sans-serif" font-weight="400" font-size="83" transform="matrix(1 0 0 1 287.009 782)">烧开水原则</text><g clip-path="url(#clip32)"><g filter="url(#fx12)" transform="translate(196 1712)"><g><rect x="22.5001" y="22.25" width="550" height="173" stroke="#000000" stroke-width="5" stroke-miterlimit="8" fill="#FFFFFF"/></g></g></g><rect x="218.5" y="1720.5" width="550" height="173" stroke="#000000" stroke-width="4.58333" stroke-miterlimit="8" fill="#FFFFFF"/><text font-family="FangSong,FangSong_MSFontService,sans-serif" font-weight="400" font-size="83" transform="matrix(1 0 0 1 328.259 1840)">概念地图</text><path d="M0-1.14583 939.168-1.14583 939.168 90.0026 936.876 90.0026 936.876 0 938.022 1.14583 0 1.14583ZM951.772 85.4193 938.022 112.919 924.272 85.4193Z" transform="matrix(-1 1.22465e-16 1.22465e-16 1 1431.02 1607)"/><text font-family="STKaiti,STKaiti_MSFontService,sans-serif" font-weight="400" font-size="73" transform="matrix(1 0 0 1 842.953 1569)">最后形成</text><g clip-path="url(#clip33)"><g filter="url(#fx13)" transform="translate(1304 973)"><g><rect x="22.5" y="22.2499" width="550" height="174" stroke="#000000" stroke-width="5" stroke-miterlimit="8" fill="#FFFFFF"/></g></g></g><rect x="1326.5" y="981.5" width="550" height="174" stroke="#000000" stroke-width="4.58333" stroke-miterlimit="8" fill="#FFFFFF"/><text font-family="FangSong,FangSong_MSFontService,sans-serif" font-weight="400" font-size="83" transform="matrix(1 0 0 1 1435.64 1101)">预习复习</text><g clip-path="url(#clip34)"><g filter="url(#fx14)" transform="translate(1502 658)"><g><rect x="22.5" y="22.2501" width="550" height="174" stroke="#000000" stroke-width="5" stroke-miterlimit="8" fill="#FFFFFF"/></g></g></g><rect x="1524.5" y="666.5" width="550" height="174" stroke="#000000" stroke-width="4.58333" stroke-miterlimit="8" fill="#FFFFFF"/><text font-family="FangSong,FangSong_MSFontService,sans-serif" font-weight="400" font-size="83" transform="matrix(1 0 0 1 1634.01 786)">口述笔记</text><g clip-path="url(#clip35)"><g filter="url(#fx15)" transform="translate(196 1303)"><g><rect x="22.5001" y="22.2499" width="550" height="174" stroke="#000000" stroke-width="5" stroke-miterlimit="8" fill="#FFFFFF"/></g></g></g><rect x="218.5" y="1311.5" width="550" height="174" stroke="#000000" stroke-width="4.58333" stroke-miterlimit="8" fill="#FFFFFF"/><text font-family="FangSong,FangSong_MSFontService,sans-serif" font-weight="400" font-size="83" transform="matrix(1 0 0 1 328.259 1431)">摘要笔记</text><g clip-path="url(#clip36)"><g filter="url(#fx16)" transform="translate(2582 1455)"><g><rect x="22.5" y="22.2499" width="550" height="173" stroke="#000000" stroke-width="5" stroke-miterlimit="8" fill="#FFFFFF"/></g></g></g><rect x="2604.5" y="1463.5" width="550" height="173" stroke="#000000" stroke-width="4.58333" stroke-miterlimit="8" fill="#FFFFFF"/><text font-family="FangSong,FangSong_MSFontService,sans-serif" font-weight="400" font-size="83" transform="matrix(1 0 0 1 2797 1583)">Anki</text><path d="M1.14581-0.00730885 2.28477 178.548-0.00684876 178.563-1.14581 0.00730885ZM14.8594 173.884 1.28514 201.471-12.64 174.06Z" transform="matrix(-1 0 0 1 494.285 461)"/><path d="M2613 1112.15 2530.5 1112.15 2531.65 1111 2531.65 1320.48 2530.5 1319.33 2880.66 1319.33 2880.66 1440.4 2878.36 1440.4 2878.36 1320.48 2879.51 1321.63 2529.35 1321.63 2529.35 1109.85 2613 1109.85ZM2893.26 1435.82 2879.51 1463.32 2865.76 1435.82Z"/><text font-family="STKaiti,STKaiti_MSFontService,sans-serif" font-weight="400" font-size="73" transform="matrix(1 0 0 1 2342.98 1230)">制卡</text><path d="M2074 749.854 2417.45 749.854 2417.45 1122.46 2415.16 1122.46 2415.16 751 2416.31 752.146 2074 752.146ZM2430.06 1117.88 2416.31 1145.38 2402.56 1117.88Z"/><path d="M3714.61 1197 3714.61 1550.46 3176.92 1550.46 3176.92 1548.17 3713.46 1548.17 3712.32 1549.32 3712.32 1197ZM3181.5 1563.07 3154 1549.32 3181.5 1535.57Z"/><text font-family="STKaiti,STKaiti_MSFontService,sans-serif" font-weight="400" font-size="73" transform="matrix(1 0 0 1 3292.29 1521)">人工归纳</text><path d="M768.004 747.854 1500.83 750.249 1500.83 752.54 767.996 750.146ZM1496.29 737.63 1523.75 751.469 1496.2 765.129Z"/><text font-family="STKaiti,STKaiti_MSFontService,sans-serif" font-weight="400" font-size="73" transform="matrix(1 0 0 1 927.401 714)">不关键且简单</text><text font-family="STKaiti,STKaiti_MSFontService,sans-serif" font-weight="400" font-size="73" transform="matrix(1 0 0 1 549.965 585)">分类</text><path d="M1143.81 461 1143.81 562.882 768.917 562.882 768.917 560.59 1142.66 560.59 1141.52 561.736 1141.52 461ZM773.5 575.486 746 561.736 773.5 547.986Z"/><g clip-path="url(#clip37)"><g filter="url(#fx17)" transform="translate(2575 2061)"><g><rect x="22.4998" y="22.2498" width="550" height="173" stroke="#000000" stroke-width="5" stroke-miterlimit="8" fill="#FFFFFF"/></g></g></g><rect x="2597.5" y="2069.5" width="550" height="173" stroke="#000000" stroke-width="4.58333" stroke-miterlimit="8" fill="#FFFFFF"/><text font-family="FangSong,FangSong_MSFontService,sans-serif" font-weight="400" font-size="83" transform="matrix(1 0 0 1 2707.25 2189)">永久记忆</text><text font-family="STKaiti,STKaiti_MSFontService,sans-serif" font-weight="400" font-size="73" transform="matrix(1 0 0 1 2910.58 1895)">召回测试</text><path d="M1.52953 22.8939 8.01032 409.74 5.71898 409.778-0.761812 22.9323ZM-13.2874 27.7265 0 0 14.2087 27.2658ZM20.536 404.946 7.24852 432.673-6.96019 405.407Z" transform="matrix(-1 0 0 1 2879.25 1636)"/><path d="M0-1.14583 232.188-1.14583 232.188 809.467 229.896 809.467 229.896 0 231.042 1.14583 0 1.14583ZM244.792 804.884 231.042 832.384 217.292 804.884Z" transform="matrix(1.83697e-16 1 1 -1.83697e-16 493 836)"/><text font-family="STKaiti,STKaiti_MSFontService,sans-serif" font-weight="400" font-size="73" transform="matrix(1 0 0 1 836.118 1029)">关键</text><path d="M0-1.14583 83.6458-1.14583 83.6458 648.813 27.5 648.813 27.5 646.521 82.5 646.521 81.3542 647.667 81.3542 0 82.5 1.14583 0 1.14583ZM32.0833 661.417 4.58333 647.667 32.0833 633.917Z" transform="matrix(-1 1.22465e-16 1.22465e-16 1 222.583 749)"/><text font-family="STKaiti,STKaiti_MSFontService,sans-serif" font-weight="400" font-size="73" transform="matrix(1 0 0 1 197.616 1116)">困难</text><path d="M0-1.14583 262.29-1.14583 262.29 2081.07 259.999 2081.07 259.999 0 261.145 1.14583 0 1.14583ZM274.895 2076.49 261.145 2103.99 247.395 2076.49Z" transform="matrix(1.83697e-16 1 1 -1.83697e-16 493 1893)"/><path d="M768 1395.85 990.506 1395.85 990.506 1462.16 988.215 1462.16 988.215 1397 989.36 1398.15 768 1398.15ZM1003.11 1457.58 989.36 1485.08 975.61 1457.58Z"/><path d="M1222 1544.85 2581.47 1547.28 2581.46 1549.58 1222 1547.15ZM2576.91 1534.67 2604.38 1548.47 2576.86 1562.17Z"/><path d="M1602.17 1155 1602.17 1401.14 990 1401.14 991.146 1399.99 991.146 1462.07 988.854 1462.07 988.854 1398.85 1601.02 1398.85 1599.88 1399.99 1599.88 1155ZM1003.75 1457.48 990 1484.98 976.25 1457.48Z"/><text font-family="STKaiti,STKaiti_MSFontService,sans-serif" font-weight="400" font-size="73" transform="matrix(1 0 0 1 1822.93 1505)">制卡</text><g clip-path="url(#clip38)"><g filter="url(#fx18)" transform="translate(3417 2060)"><g><rect x="22.5" y="22.2498" width="550" height="173" stroke="#000000" stroke-width="5" stroke-miterlimit="8" fill="#FFFFFF"/></g></g></g><rect x="3439.5" y="2068.5" width="550" height="173" stroke="#000000" stroke-width="4.58333" stroke-miterlimit="8" fill="#FFFFFF"/><text font-family="FangSong,FangSong_MSFontService,sans-serif" font-weight="400" font-size="83" transform="matrix(1 0 0 1 3548.96 2188)">个人</text><text font-family="FangSong,FangSong_MSFontService,sans-serif" font-weight="400" font-size="83" transform="matrix(1 0 0 1 3713.96 2188)">wiki</text><path d="M22.9219-1.03117 268.802 0.198978 268.791 2.49062 22.9104 1.26047ZM27.4309 13.8874 0 0 27.5684-13.6122ZM264.282-12.428 291.713 1.45945 264.145 15.0717Z" transform="matrix(1 0 0 -1 3147 2155.46)"/><path d="M0-1.14583 481.095-1.14583 481.095 3221.85 370.691 3221.85 370.691 3219.56 479.949 3219.56 478.803 3220.7 478.803 0 479.949 1.14583 0 1.14583ZM375.274 3234.45 347.774 3220.7 375.274 3206.95Z" transform="matrix(1.83697e-16 1 1 -1.83697e-16 493 1893)"/></g></svg>